<?xml version="1.0" encoding="utf-8"?>
<!-- Generated by IcoMoon.io -->
<!DOCTYPE svg PUBLIC "-//W3C//DTD SVG 1.1//EN" "http://www.w3.org/Graphics/SVG/1.1/DTD/svg11.dtd">
<svg xmlns="http://www.w3.org/2000/svg" width="191.157" height="221.039" viewBox="0 0 191.157 221.039">
  <path id="Tracé_7" data-name="Tracé 7" d="M41.816,165.78H5.974c-3.3,0-5.974,3.088-5.974,6.907v41.445c0,3.82,2.67,6.907,5.974,6.907H41.816c3.3,0,5.974-3.088,5.974-6.907V172.687C47.789,168.867,45.119,165.78,41.816,165.78Zm-5.974,34.537c0,3.82-2.67,6.907-5.974,6.907H17.921c-3.3,0-5.974-3.088-5.974-6.907V186.5c0-3.82,2.67-6.907,5.974-6.907H29.868c3.3,0,5.974,3.088,5.974,6.907Zm149.341-20.722H77.657c-3.3,0-5.974,3.088-5.974,6.907v13.815c0,3.82,2.67,6.907,5.974,6.907H185.183c3.3,0,5.974-3.088,5.974-6.907V186.5C191.157,182.682,188.487,179.595,185.183,179.595Zm0-82.89H77.657c-3.3,0-5.974,3.088-5.974,6.907v13.815c0,3.82,2.67,6.907,5.974,6.907H185.183c3.3,0,5.974-3.088,5.974-6.907V103.612C191.157,99.792,188.487,96.7,185.183,96.7ZM41.816,0H5.974C2.67,0,0,3.088,0,6.907V48.352c0,3.82,2.67,6.907,5.974,6.907H41.816c3.3,0,5.974-10,5.974-13.815V6.907C47.789,3.088,45.119,0,41.816,0ZM35.842,34.537c0,3.82-2.67,6.907-5.974,6.907H17.921c-3.3,0-5.974-3.088-5.974-6.907V20.722c0-3.82,2.67-6.907,5.974-6.907H29.868c3.3,0,5.974,3.088,5.974,6.907ZM41.816,82.89H5.974C2.67,82.89,0,85.977,0,89.8v41.445c0,3.82,2.67,6.907,5.974,6.907H41.816c3.3,0,5.974-3.088,5.974-6.907V89.8C47.789,85.977,45.119,82.89,41.816,82.89Zm-5.974,34.537c0,3.82-2.67,6.907-5.974,6.907H17.921c-3.3,0-5.974-3.088-5.974-6.907V103.612c0-3.82,2.67-6.907,5.974-6.907H29.868c3.3,0,5.974,3.088,5.974,6.907ZM185.183,13.815H77.657c-3.3,0-5.974,3.088-5.974,6.907V34.537c0,3.82,2.67,6.907,5.974,6.907H185.183c3.3,0,5.974-3.088,5.974-6.907V20.722C191.157,16.9,188.487,13.815,185.183,13.815Z" fill="#4f6064"/>
</svg>
